<mxfile host="65bd71144e">
    <diagram id="P2L8khJq6iVACmmDoZS8" name="Page-1">
        <mxGraphModel dx="1053" dy="830" grid="1" gridSize="10" guides="1" tooltips="1" connect="1" arrows="1" fold="1" page="1" pageScale="1" pageWidth="850" pageHeight="1100" math="0" shadow="0">
            <root>
                <mxCell id="0"/>
                <mxCell id="1" parent="0"/>
                <mxCell id="vRecdFWWaNIaUu5lRkoL-17" value="&lt;font style=&quot;font-size: 36px;&quot;&gt;Incorrect&lt;/font&gt;" style="text;html=1;align=center;verticalAlign=middle;resizable=0;points=[];autosize=1;strokeColor=none;fillColor=none;" parent="1" vertex="1">
                    <mxGeometry x="345" y="130" width="160" height="60" as="geometry"/>
                </mxCell>
                <mxCell id="vRecdFWWaNIaUu5lRkoL-24" value="&lt;font style=&quot;font-size: 36px;&quot;&gt;Correct&lt;/font&gt;" style="text;html=1;align=center;verticalAlign=middle;resizable=0;points=[];autosize=1;strokeColor=none;fillColor=none;" parent="1" vertex="1">
                    <mxGeometry x="1015" y="130" width="140" height="60" as="geometry"/>
                </mxCell>
                <mxCell id="vRecdFWWaNIaUu5lRkoL-25" value="" style="group" parent="1" vertex="1" connectable="0">
                    <mxGeometry x="820" y="250" width="530" height="350" as="geometry"/>
                </mxCell>
                <mxCell id="vRecdFWWaNIaUu5lRkoL-7" value="" style="rounded=0;whiteSpace=wrap;html=1;fillColor=#DAE8FC;strokeColor=#82b366;" parent="vRecdFWWaNIaUu5lRkoL-25" vertex="1">
                    <mxGeometry x="165" width="200" height="240" as="geometry"/>
                </mxCell>
                <mxCell id="vRecdFWWaNIaUu5lRkoL-8" value="" style="rounded=0;whiteSpace=wrap;html=1;fillColor=#DAE8FC;strokeColor=#6c8ebf;" parent="vRecdFWWaNIaUu5lRkoL-25" vertex="1">
                    <mxGeometry y="240" width="530" height="110" as="geometry"/>
                </mxCell>
                <mxCell id="vRecdFWWaNIaUu5lRkoL-10" value="" style="ellipse;whiteSpace=wrap;html=1;" parent="vRecdFWWaNIaUu5lRkoL-25" vertex="1">
                    <mxGeometry x="240" y="95" width="50" height="50" as="geometry"/>
                </mxCell>
                <mxCell id="vRecdFWWaNIaUu5lRkoL-11" value="" style="ellipse;whiteSpace=wrap;html=1;" parent="vRecdFWWaNIaUu5lRkoL-25" vertex="1">
                    <mxGeometry x="240" y="275" width="50" height="50" as="geometry"/>
                </mxCell>
                <mxCell id="vRecdFWWaNIaUu5lRkoL-16" value="" style="endArrow=none;html=1;rounded=0;" parent="vRecdFWWaNIaUu5lRkoL-25" source="vRecdFWWaNIaUu5lRkoL-11" target="vRecdFWWaNIaUu5lRkoL-10" edge="1">
                    <mxGeometry width="50" height="50" relative="1" as="geometry">
                        <mxPoint x="330" y="590" as="sourcePoint"/>
                        <mxPoint x="380" y="540" as="targetPoint"/>
                    </mxGeometry>
                </mxCell>
                <mxCell id="vRecdFWWaNIaUu5lRkoL-26" value="" style="group" parent="1" vertex="1" connectable="0">
                    <mxGeometry x="160" y="250" width="530" height="350" as="geometry"/>
                </mxCell>
                <mxCell id="vRecdFWWaNIaUu5lRkoL-1" value="" style="rounded=0;whiteSpace=wrap;html=1;fillColor=#EAFFE9;strokeColor=#82b366;" parent="vRecdFWWaNIaUu5lRkoL-26" vertex="1">
                    <mxGeometry x="165" width="200" height="240" as="geometry"/>
                </mxCell>
                <mxCell id="vRecdFWWaNIaUu5lRkoL-2" value="" style="rounded=0;whiteSpace=wrap;html=1;fillColor=#EAFFE9;strokeColor=#6c8ebf;" parent="vRecdFWWaNIaUu5lRkoL-26" vertex="1">
                    <mxGeometry y="240" width="265" height="110" as="geometry"/>
                </mxCell>
                <mxCell id="vRecdFWWaNIaUu5lRkoL-3" value="" style="rounded=0;whiteSpace=wrap;html=1;fillColor=#EAFFE9;strokeColor=#b85450;" parent="vRecdFWWaNIaUu5lRkoL-26" vertex="1">
                    <mxGeometry x="265" y="240" width="265" height="110" as="geometry"/>
                </mxCell>
                <mxCell id="vRecdFWWaNIaUu5lRkoL-4" value="" style="ellipse;whiteSpace=wrap;html=1;" parent="vRecdFWWaNIaUu5lRkoL-26" vertex="1">
                    <mxGeometry x="240" y="95" width="50" height="50" as="geometry"/>
                </mxCell>
                <mxCell id="vRecdFWWaNIaUu5lRkoL-5" value="" style="ellipse;whiteSpace=wrap;html=1;" parent="vRecdFWWaNIaUu5lRkoL-26" vertex="1">
                    <mxGeometry x="107.5" y="270" width="50" height="50" as="geometry"/>
                </mxCell>
                <mxCell id="vRecdFWWaNIaUu5lRkoL-6" value="" style="ellipse;whiteSpace=wrap;html=1;" parent="vRecdFWWaNIaUu5lRkoL-26" vertex="1">
                    <mxGeometry x="372.5" y="270" width="50" height="50" as="geometry"/>
                </mxCell>
                <mxCell id="vRecdFWWaNIaUu5lRkoL-13" value="" style="endArrow=none;html=1;rounded=0;" parent="vRecdFWWaNIaUu5lRkoL-26" source="vRecdFWWaNIaUu5lRkoL-6" target="vRecdFWWaNIaUu5lRkoL-4" edge="1">
                    <mxGeometry width="50" height="50" relative="1" as="geometry">
                        <mxPoint x="300" y="490" as="sourcePoint"/>
                        <mxPoint x="350" y="440" as="targetPoint"/>
                    </mxGeometry>
                </mxCell>
                <mxCell id="vRecdFWWaNIaUu5lRkoL-14" value="" style="endArrow=none;html=1;rounded=0;" parent="vRecdFWWaNIaUu5lRkoL-26" source="vRecdFWWaNIaUu5lRkoL-5" target="vRecdFWWaNIaUu5lRkoL-4" edge="1">
                    <mxGeometry width="50" height="50" relative="1" as="geometry">
                        <mxPoint x="290" y="510" as="sourcePoint"/>
                        <mxPoint x="340" y="460" as="targetPoint"/>
                    </mxGeometry>
                </mxCell>
                <mxCell id="vRecdFWWaNIaUu5lRkoL-15" value="" style="endArrow=none;html=1;rounded=0;" parent="vRecdFWWaNIaUu5lRkoL-26" source="vRecdFWWaNIaUu5lRkoL-5" target="vRecdFWWaNIaUu5lRkoL-6" edge="1">
                    <mxGeometry width="50" height="50" relative="1" as="geometry">
                        <mxPoint x="220" y="470" as="sourcePoint"/>
                        <mxPoint x="270" y="420" as="targetPoint"/>
                    </mxGeometry>
                </mxCell>
            </root>
        </mxGraphModel>
    </diagram>
</mxfile>